HIERARCHY
ROOT mixamorig:Hips
{
	OFFSET 0.000000 201.639420 0.000000
	CHANNELS 6 Xposition Yposition Zposition Xrotation Yrotation Zrotation
	JOINT mixamorig:Spine
	{
		OFFSET 0.006200 19.524994 -2.481800
		CHANNELS 3 Xrotation Yrotation Zrotation
		JOINT mixamorig:Spine1
		{
			OFFSET -0.000900 22.835007 -2.825400
			CHANNELS 3 Xrotation Yrotation Zrotation
			JOINT mixamorig:Spine2
			{
				OFFSET -0.020600 26.552490 -3.193300
				CHANNELS 3 Xrotation Yrotation Zrotation
				JOINT mixamorig:Neck
				{
					OFFSET -0.060000 30.701813 1.352200
					CHANNELS 3 Xrotation Yrotation Zrotation
					JOINT mixamorig:Head
					{
						OFFSET -0.087200 22.547607 3.670900
						CHANNELS 3 Xrotation Yrotation Zrotation
						JOINT mixamorig:HeadTop_End
						{
							OFFSET -0.830600 40.355194 7.893500
							CHANNELS 3 Xrotation Yrotation Zrotation
							End Site
							{
								OFFSET 0.000000 30.592346 0.000000
							}
						}
						JOINT mixamorig:RightEye
						{
							OFFSET -6.302100 18.118591 16.197100
							CHANNELS 3 Xrotation Yrotation Zrotation
							End Site
							{
								OFFSET 0.000000 30.592346 0.000000
							}
						}
						JOINT mixamorig:LeftEye
						{
							OFFSET 6.741500 18.382690 16.401899
							CHANNELS 3 Xrotation Yrotation Zrotation
							End Site
							{
								OFFSET 0.000000 30.592346 0.000000
							}
						}
					}
				}
				JOINT mixamorig:LeftShoulder
				{
					OFFSET 11.924900 18.230499 1.425400
					CHANNELS 3 Xrotation Yrotation Zrotation
					JOINT mixamorig:LeftArm
					{
						OFFSET 25.435989 -0.697632 -5.229300
						CHANNELS 3 Xrotation Yrotation Zrotation
						JOINT mixamorig:LeftForeArm
						{
							OFFSET 54.684776 0.000000 0.000000
							CHANNELS 3 Xrotation Yrotation Zrotation
							JOINT mixamorig:LeftHand
							{
								OFFSET 55.098175 0.000000 0.000000
								CHANNELS 3 Xrotation Yrotation Zrotation
								JOINT mixamorig:LeftHandMiddle1
								{
									OFFSET 23.369751 0.000000 0.000000
									CHANNELS 3 Xrotation Yrotation Zrotation
									JOINT mixamorig:LeftHandMiddle2
									{
										OFFSET 6.378677 0.000000 0.000000
										CHANNELS 3 Xrotation Yrotation Zrotation
										JOINT mixamorig:LeftHandMiddle3
										{
											OFFSET 6.148331 0.000000 0.000000
											CHANNELS 3 Xrotation Yrotation Zrotation
											JOINT mixamorig:LeftHandMiddle4
											{
												OFFSET 6.582504 0.000000 0.000000
												CHANNELS 3 Xrotation Yrotation Zrotation
												End Site
												{
													OFFSET -1.168900 6.395691 1.028606
												}
											}
										}
									}
								}
								JOINT mixamorig:LeftHandThumb1
								{
									OFFSET 7.235672 -3.848206 5.434273
									CHANNELS 3 Xrotation Yrotation Zrotation
									JOINT mixamorig:LeftHandThumb2
									{
										OFFSET 6.568451 -3.792297 3.792300
										CHANNELS 3 Xrotation Yrotation Zrotation
										JOINT mixamorig:LeftHandThumb3
										{
											OFFSET 6.063080 -3.500519 3.500518
											CHANNELS 3 Xrotation Yrotation Zrotation
											JOINT mixamorig:LeftHandThumb4
											{
												OFFSET 4.793182 -2.767334 2.767349
												CHANNELS 3 Xrotation Yrotation Zrotation
												End Site
												{
													OFFSET 0.101639 6.054260 1.275483
												}
											}
										}
									}
								}
								JOINT mixamorig:LeftHandIndex1
								{
									OFFSET 23.101074 -0.309540 4.992809
									CHANNELS 3 Xrotation Yrotation Zrotation
									JOINT mixamorig:LeftHandIndex2
									{
										OFFSET 6.226883 0.000000 0.000000
										CHANNELS 3 Xrotation Yrotation Zrotation
										JOINT mixamorig:LeftHandIndex3
										{
											OFFSET 6.094330 0.000000 0.000000
											CHANNELS 3 Xrotation Yrotation Zrotation
											JOINT mixamorig:LeftHandIndex4
											{
												OFFSET 5.482605 0.000000 0.000000
												CHANNELS 3 Xrotation Yrotation Zrotation
												End Site
												{
													OFFSET -1.427902 5.233032 0.797164
												}
											}
										}
									}
								}
								JOINT mixamorig:LeftHandRing1
								{
									OFFSET 22.299240 0.021149 -3.964172
									CHANNELS 3 Xrotation Yrotation Zrotation
									JOINT mixamorig:LeftHandRing2
									{
										OFFSET 6.321869 0.000000 0.000000
										CHANNELS 3 Xrotation Yrotation Zrotation
										JOINT mixamorig:LeftHandRing3
										{
											OFFSET 5.899796 0.000000 0.000000
											CHANNELS 3 Xrotation Yrotation Zrotation
											JOINT mixamorig:LeftHandRing4
											{
												OFFSET 6.517899 0.000000 0.000000
												CHANNELS 3 Xrotation Yrotation Zrotation
												End Site
												{
													OFFSET -1.637299 6.232208 0.980890
												}
											}
										}
									}
								}
								JOINT mixamorig:LeftHandPinky1
								{
									OFFSET 20.463791 -0.302338 -8.562233
									CHANNELS 3 Xrotation Yrotation Zrotation
									JOINT mixamorig:LeftHandPinky2
									{
										OFFSET 6.908646 0.000000 0.000000
										CHANNELS 3 Xrotation Yrotation Zrotation
										JOINT mixamorig:LeftHandPinky3
										{
											OFFSET 4.622849 0.000000 0.000000
											CHANNELS 3 Xrotation Yrotation Zrotation
											JOINT mixamorig:LeftHandPinky4
											{
												OFFSET 5.216080 0.000000 0.000000
												CHANNELS 3 Xrotation Yrotation Zrotation
												End Site
												{
													OFFSET -0.606308 5.116241 0.814926
												}
											}
										}
									}
								}
							}
						}
					}
				}
				JOINT mixamorig:RightShoulder
				{
					OFFSET -12.001300 18.284088 1.348900
					CHANNELS 3 Xrotation Yrotation Zrotation
					JOINT mixamorig:RightArm
					{
						OFFSET -25.308500 -0.751312 -5.164599
						CHANNELS 3 Xrotation Yrotation Zrotation
						JOINT mixamorig:RightForeArm
						{
							OFFSET -54.684429 0.000000 0.000000
							CHANNELS 3 Xrotation Yrotation Zrotation
							JOINT mixamorig:RightHand
							{
								OFFSET -55.150291 0.000000 0.000000
								CHANNELS 3 Xrotation Yrotation Zrotation
								JOINT mixamorig:RightHandMiddle1
								{
									OFFSET -23.317566 0.000000 0.000000
									CHANNELS 3 Xrotation Yrotation Zrotation
									JOINT mixamorig:RightHandMiddle2
									{
										OFFSET -6.378403 0.000000 0.000000
										CHANNELS 3 Xrotation Yrotation Zrotation
										JOINT mixamorig:RightHandMiddle3
										{
											OFFSET -6.148193 0.000000 0.000000
											CHANNELS 3 Xrotation Yrotation Zrotation
											JOINT mixamorig:RightHandMiddle4
											{
												OFFSET -6.583389 0.000000 0.000000
												CHANNELS 3 Xrotation Yrotation Zrotation
												End Site
												{
													OFFSET 1.171692 6.395905 1.029786
												}
											}
										}
									}
								}
								JOINT mixamorig:RightHandThumb1
								{
									OFFSET -7.190521 -3.860474 5.435846
									CHANNELS 3 Xrotation Yrotation Zrotation
									JOINT mixamorig:RightHandThumb2
									{
										OFFSET -6.567429 -3.791718 3.791708
										CHANNELS 3 Xrotation Yrotation Zrotation
										JOINT mixamorig:RightHandThumb3
										{
											OFFSET -6.062469 -3.500153 3.500166
											CHANNELS 3 Xrotation Yrotation Zrotation
											JOINT mixamorig:RightHandThumb4
											{
												OFFSET -4.792618 -2.767029 2.767022
												CHANNELS 3 Xrotation Yrotation Zrotation
												End Site
												{
													OFFSET -0.100327 6.053253 1.276754
												}
											}
										}
									}
								}
								JOINT mixamorig:RightHandIndex1
								{
									OFFSET -23.048981 -0.310791 4.992554
									CHANNELS 3 Xrotation Yrotation Zrotation
									JOINT mixamorig:RightHandIndex2
									{
										OFFSET -6.227539 0.000000 0.000000
										CHANNELS 3 Xrotation Yrotation Zrotation
										JOINT mixamorig:RightHandIndex3
										{
											OFFSET -6.095047 0.000000 0.000000
											CHANNELS 3 Xrotation Yrotation Zrotation
											JOINT mixamorig:RightHandIndex4
											{
												OFFSET -5.484772 0.000000 0.000000
												CHANNELS 3 Xrotation Yrotation Zrotation
												End Site
												{
													OFFSET 1.420593 5.237305 0.797056
												}
											}
										}
									}
								}
								JOINT mixamorig:RightHandRing1
								{
									OFFSET -22.246323 0.020569 -3.963762
									CHANNELS 3 Xrotation Yrotation Zrotation
									JOINT mixamorig:RightHandRing2
									{
										OFFSET -6.322128 0.000000 0.000000
										CHANNELS 3 Xrotation Yrotation Zrotation
										JOINT mixamorig:RightHandRing3
										{
											OFFSET -5.900024 0.000000 0.000000
											CHANNELS 3 Xrotation Yrotation Zrotation
											JOINT mixamorig:RightHandRing4
											{
												OFFSET -6.518356 0.000000 0.000000
												CHANNELS 3 Xrotation Yrotation Zrotation
												End Site
												{
													OFFSET 1.636398 6.232697 0.982186
												}
											}
										}
									}
								}
								JOINT mixamorig:RightHandPinky1
								{
									OFFSET -20.411011 -0.303314 -8.561701
									CHANNELS 3 Xrotation Yrotation Zrotation
									JOINT mixamorig:RightHandPinky2
									{
										OFFSET -6.907349 0.000000 0.000000
										CHANNELS 3 Xrotation Yrotation Zrotation
										JOINT mixamorig:RightHandPinky3
										{
											OFFSET -4.623840 0.000000 0.000000
											CHANNELS 3 Xrotation Yrotation Zrotation
											JOINT mixamorig:RightHandPinky4
											{
												OFFSET -5.218353 0.000000 0.000000
												CHANNELS 3 Xrotation Yrotation Zrotation
												End Site
												{
													OFFSET 0.602097 5.118835 0.816273
												}
											}
										}
									}
								}
							}
						}
					}
				}
			}
		}
	}
	JOINT mixamorig:LeftUpLeg
	{
		OFFSET 18.168400 -13.561905 -0.039000
		CHANNELS 3 Xrotation Yrotation Zrotation
		JOINT mixamorig:LeftLeg
		{
			OFFSET 0.577358 -80.825211 -3.695000
			CHANNELS 3 Xrotation Yrotation Zrotation
			JOINT mixamorig:LeftFoot
			{
				OFFSET -0.577356 -83.370262 -6.520700
				CHANNELS 3 Xrotation Yrotation Zrotation
				JOINT mixamorig:LeftToeBase
				{
					OFFSET 0.750401 -20.798306 25.135401
					CHANNELS 3 Xrotation Yrotation Zrotation
					JOINT mixamorig:LeftToe_End
					{
						OFFSET -0.000500 0.001200 19.917799
						CHANNELS 3 Xrotation Yrotation Zrotation
						End Site
						{
							OFFSET 0.000000 19.917805 0.000000
						}
					}
				}
			}
		}
	}
	JOINT mixamorig:RightUpLeg
	{
		OFFSET -18.162500 -13.585098 -0.041000
		CHANNELS 3 Xrotation Yrotation Zrotation
		JOINT mixamorig:RightLeg
		{
			OFFSET -0.595024 -80.945297 -3.631900
			CHANNELS 3 Xrotation Yrotation Zrotation
			JOINT mixamorig:RightFoot
			{
				OFFSET 0.595024 -83.218193 -6.561200
				CHANNELS 3 Xrotation Yrotation Zrotation
				JOINT mixamorig:RightToeBase
				{
					OFFSET -0.753601 -20.807106 25.115000
					CHANNELS 3 Xrotation Yrotation Zrotation
					JOINT mixamorig:RightToe_End
					{
						OFFSET 0.000299 0.001700 19.918200
						CHANNELS 3 Xrotation Yrotation Zrotation
						End Site
						{
							OFFSET 0.000000 19.918203 0.000000
						}
					}
				}
			}
		}
	}
}
MOTION
Frames: 4
Frame Time: 0.033333
-10.836824 197.282104 -0.550997 -3.858131 4.312105 -0.614207 1.570749 5.056938 5.302178 5.569928 1.125268 2.569779 5.547913 1.072544 2.647577 6.938171 -1.326066 -0.411181 -8.324627 -5.409163 -5.104766 0.000000 -0.000000 -0.000000 0.000000 -0.000000 -0.000000 0.000000 -0.000000 -0.000000 2.610796 -14.242214 -10.216230 5.698108 -15.809038 -61.313290 -0.000006 -16.554111 -0.000009 -14.923116 3.821581 8.456850 0.103227 1.190224 -9.913410 0.103894 1.194019 -9.945409 0.025940 0.598304 -4.964182 0.000001 -0.000000 -0.000000 -1.540044 3.690185 6.142352 3.939041 7.948710 0.746816 -0.579463 1.575001 2.538698 0.000000 -0.000000 -0.000001 0.103562 1.192124 -9.929415 0.103558 1.192119 -9.929414 0.025936 0.598307 -4.964154 -0.000000 -0.000000 -0.000001 0.103558 1.192129 -9.929404 0.103560 1.192123 -9.929402 0.025935 0.598303 -4.964167 0.000000 -0.000001 -0.000002 0.787119 5.188582 -9.457040 0.096218 -2.863098 -10.432493 0.025929 0.598307 -4.964171 0.000000 0.000000 0.000000 0.960649 0.637991 11.245316 25.125527 36.431153 29.150558 0.000002 20.359964 -0.000006 -33.704070 11.472882 -15.480728 0.104552 -1.203679 9.928027 0.104543 -1.203686 9.928012 0.026186 -0.604104 4.963471 -0.000001 -0.000001 -0.000001 -1.849245 -3.581792 -6.586139 4.637201 -8.634125 -0.225399 -1.273752 0.137309 -2.094885 -0.000002 0.000001 0.000003 0.104552 -1.203679 9.928015 0.104555 -1.203682 9.928018 0.026180 -0.604100 4.963482 0.000001 0.000001 -0.000003 0.104559 -1.203681 9.928008 0.104553 -1.203685 9.928028 0.026182 -0.604096 4.963484 -0.000002 -0.000000 0.000001 0.104563 -1.203680 9.928017 0.104544 -1.203683 9.928023 0.026178 -0.604109 4.963475 -0.000001 -0.000001 0.000001 -29.007602 -3.495558 8.648195 51.316369 3.567947 -8.976853 12.510675 1.512374 -2.236008 -19.946155 -0.078570 0.434221 -0.000000 -0.000000 -0.000000 -12.281990 -15.923548 -2.551112 28.476189 -1.269453 -1.418398 -12.731204 1.476778 -7.318658 -0.079420 -0.000000 -0.000001 -0.000000 0.000001 -0.000000 
-10.774548 197.614670 5.527790 -2.782416 5.922280 0.101975 0.991435 6.370185 5.151588 5.403080 1.348930 1.826326 5.384944 1.297589 1.923262 7.930750 -1.625633 -0.374012 -10.499356 -6.973488 -4.787285 -0.000000 0.000000 -0.000000 -0.000000 0.000000 -0.000000 -0.000000 0.000000 -0.000000 2.645469 -14.303645 -10.280441 8.474202 -13.041820 -60.376639 0.000009 -19.968825 0.000012 -17.164854 5.313064 8.117010 0.103227 1.190224 -9.913419 0.103896 1.194019 -9.945409 0.025937 0.598303 -4.964183 -0.000001 -0.000000 0.000001 -1.540043 3.690184 6.142350 3.939041 7.948711 0.746816 -0.579462 1.575004 2.538696 -0.000001 -0.000000 -0.000003 0.103562 1.192124 -9.929417 0.103559 1.192118 -9.929413 0.025935 0.598307 -4.964157 -0.000001 0.000000 0.000000 0.103559 1.192129 -9.929409 0.103562 1.192122 -9.929402 0.025934 0.598304 -4.964166 -0.000000 0.000000 -0.000001 0.787119 5.188581 -9.457042 0.096221 -2.863097 -10.432489 0.025931 0.598307 -4.964173 0.000000 0.000000 0.000001 1.010675 1.460556 11.147001 26.083683 37.394941 25.240112 -0.000008 22.458618 -0.000008 -34.232693 18.961087 -22.585272 0.104547 -1.203683 9.928027 0.104547 -1.203687 9.928014 0.026192 -0.604105 4.963470 0.000004 -0.000000 -0.000000 -1.849247 -3.581790 -6.586148 4.637200 -8.634124 -0.225395 -1.273752 0.137310 -2.094881 0.000002 0.000002 -0.000000 0.104547 -1.203684 9.928015 0.104553 -1.203680 9.928015 0.026179 -0.604099 4.963480 0.000002 -0.000005 0.000003 0.104553 -1.203680 9.928009 0.104555 -1.203680 9.928023 0.026181 -0.604097 4.963486 0.000001 -0.000003 0.000003 0.104557 -1.203681 9.928015 0.104544 -1.203682 9.928026 0.026180 -0.604106 4.963476 -0.000001 0.000002 -0.000001 -31.138020 -5.660281 6.602189 42.294843 6.968956 -9.636247 9.343821 3.091738 0.404406 -4.988615 0.029001 -1.086007 0.000001 0.000001 -0.000000 -10.730729 -16.372500 -2.845445 27.565226 -1.871353 -1.938735 -14.588869 1.612123 -7.278398 -0.112328 -0.000005 -0.000002 -0.000000 -0.000000 -0.000001 
-10.462300 197.192337 11.963266 -2.047587 7.247136 0.676961 0.202446 7.576918 5.420322 5.387847 1.535791 0.815640 5.383123 1.482669 0.933024 8.750074 -1.930867 -0.173820 -11.805510 -8.582718 -4.410218 -0.000000 0.000001 0.000000 -0.000000 0.000001 0.000000 -0.000000 0.000001 0.000000 2.621592 -14.417431 -10.176119 10.440803 -10.101292 -59.558635 -0.000004 -22.518524 -0.000025 -18.254075 6.652500 8.158179 0.103227 1.190223 -9.913412 0.103895 1.194019 -9.945415 0.025939 0.598304 -4.964185 -0.000002 -0.000001 0.000000 -1.540043 3.690184 6.142352 3.939042 7.948710 0.746817 -0.579463 1.575002 2.538698 0.000002 -0.000001 0.000001 0.103562 1.192124 -9.929416 0.103560 1.192119 -9.929414 0.025935 0.598307 -4.964155 -0.000000 -0.000000 -0.000001 0.103558 1.192128 -9.929408 0.103562 1.192122 -9.929403 0.025934 0.598305 -4.964169 -0.000001 -0.000001 0.000001 0.787120 5.188581 -9.457036 0.096220 -2.863096 -10.432489 0.025931 0.598308 -4.964171 -0.000001 0.000000 0.000001 1.063702 2.144951 11.151858 26.369470 38.100885 22.291038 0.000001 24.463969 -0.000003 -32.743746 24.068238 -27.828839 0.104553 -1.203684 9.928029 0.104537 -1.203688 9.928015 0.026191 -0.604102 4.963462 0.000000 0.000000 0.000003 -1.849244 -3.581792 -6.586147 4.637197 -8.634128 -0.225397 -1.273752 0.137308 -2.094883 -0.000001 0.000001 0.000003 0.104551 -1.203679 9.928021 0.104549 -1.203683 9.928019 0.026180 -0.604098 4.963483 -0.000001 -0.000000 0.000005 0.104556 -1.203685 9.928015 0.104554 -1.203683 9.928023 0.026174 -0.604096 4.963489 0.000001 -0.000000 0.000001 0.104563 -1.203682 9.928015 0.104550 -1.203679 9.928024 0.026178 -0.604107 4.963472 -0.000002 0.000000 0.000001 -31.838913 -6.987814 4.897225 31.087422 9.442175 -9.434671 7.117768 4.304884 2.022681 -0.340925 -0.000005 0.000002 0.000000 0.000000 -0.000000 -9.280853 -16.860641 -3.228014 27.746931 -2.337471 -2.281387 -17.082289 1.778863 -7.309744 -0.143124 0.000002 -0.000006 0.000000 0.000001 0.000000 
-9.992794 196.098389 19.006645 -2.212427 7.836616 1.138925 -0.915839 8.477276 6.405452 5.714058 1.621314 -0.576324 5.739315 1.563131 -0.435911 9.161235 -2.215163 0.268843 -11.086287 -10.120591 -3.990943 -0.000000 -0.000000 0.000000 -0.000000 -0.000000 0.000000 -0.000000 -0.000000 0.000000 2.499890 -14.646958 -9.780090 10.738542 -7.136234 -59.056582 -0.000000 -22.596269 -0.000001 -16.998905 7.298461 8.789093 0.103230 1.190223 -9.913408 0.103894 1.194020 -9.945409 0.025941 0.598303 -4.964187 -0.000001 -0.000000 0.000000 -1.540041 3.690183 6.142354 3.939040 7.948709 0.746819 -0.579460 1.575003 2.538700 0.000002 0.000001 0.000004 0.103563 1.192125 -9.929412 0.103559 1.192118 -9.929415 0.025933 0.598308 -4.964156 -0.000001 0.000000 -0.000001 0.103559 1.192129 -9.929405 0.103563 1.192122 -9.929404 0.025934 0.598304 -4.964167 -0.000000 0.000000 -0.000001 0.787121 5.188579 -9.457039 0.096219 -2.863096 -10.432493 0.025932 0.598307 -4.964170 0.000000 0.000000 0.000002 1.105606 2.408690 11.340161 24.771745 38.386080 21.582501 0.000010 26.246271 0.000007 -30.001521 23.219242 -28.496543 0.104548 -1.203680 9.928027 0.104551 -1.203686 9.928010 0.026195 -0.604106 4.963470 -0.000001 0.000002 0.000002 -1.849249 -3.581791 -6.586145 4.637200 -8.634128 -0.225399 -1.273758 0.137313 -2.094883 -0.000002 0.000001 0.000001 0.104550 -1.203680 9.928016 0.104551 -1.203682 9.928021 0.026176 -0.604098 4.963484 -0.000001 0.000001 -0.000006 0.104556 -1.203684 9.928013 0.104553 -1.203686 9.928026 0.026182 -0.604089 4.963483 -0.000004 -0.000001 0.000003 0.104555 -1.203680 9.928015 0.104546 -1.203681 9.928023 0.026181 -0.604110 4.963472 0.000003 0.000001 0.000001 -29.025258 -6.070838 3.925044 15.362897 9.940394 -6.339550 6.992885 3.983504 1.493345 -0.000002 0.000003 -0.000000 -0.000000 0.000001 0.000000 -6.821772 -17.385514 -3.652652 28.197896 -2.462306 -2.381471 -19.897695 1.799400 -6.521883 -0.216178 -0.000004 -0.000003 0.000000 -0.000001 -0.000000 
